<svg height="45" width="120" xmlns="http://www.w3.org/2000/svg"><g fill="none" fill-rule="evenodd"><g fill="#fff"><path d="M21.391 44.928H10.126a.518.518 0 01-.452-.771l.869-1.547a.52.52 0 01.451-.264H22.4a.52.52 0 01.451.264l.87 1.547a.517.517 0 01-.452.77zM42.32 40.154V22.287a.794.794 0 01.378-.688c.264-.174.575-.263.891-.256h4.918c1.658 0 2.982.342 3.973 1.025.992.684 1.487 1.898 1.487 3.644 0 2.23-.766 3.688-2.297 4.372.919.36 1.611.878 2.076 1.552s.701 1.658.706 2.954v.513c0 1.98-.486 3.418-1.46 4.318-.973.9-2.279 1.35-3.918 1.353H43.59c-.378 0-.685-.09-.918-.271a.795.795 0 01-.351-.65zm2.837-10.904h3.215c1.82 0 2.73-.926 2.73-2.78 0-1.727-.928-2.59-2.783-2.59h-3.16zm0 9.284h3.378c2.035 0 3.052-1.115 3.052-3.347v-.431c0-1.151-.256-1.979-.77-2.483-.513-.505-1.274-.756-2.282-.756h-3.378zM55.558 37.724c0-1.439.542-2.442 1.626-3.01 1.083-.566 2.65-.85 4.701-.849h1.186v-.497c0-.81-.22-1.51-.662-2.1-.441-.59-1.111-.885-2.01-.887-.776 0-1.455.148-2.04.445s-.906.446-.96.446c-.307 0-.554-.149-.743-.446a1.791 1.791 0 01-.284-.984c0-.468.437-.873 1.311-1.215a7.533 7.533 0 012.77-.512c1.855 0 3.228.499 4.12 1.497.892.998 1.337 2.246 1.333 3.745v6.774c0 .251-.13.472-.392.661-.29.197-.635.297-.986.283-.33.01-.652-.09-.919-.283-.252-.19-.378-.41-.377-.66v-.95c-1.207 1.403-2.567 2.105-4.08 2.105-1.046 0-1.907-.306-2.581-.918-.675-.612-1.013-1.493-1.013-2.645zm2.865-.35c0 .576.163 1.012.487 1.309s.748.445 1.27.445c.684 0 1.337-.287 1.96-.863s.931-1.187.93-1.835v-.999h-.675a14.967 14.967 0 00-1.986.107 2.93 2.93 0 00-1.378.568c-.405.306-.608.728-.608 1.267zM67.754 40.08c0-.308.162-.69.486-1.146l5.779-8.387h-5.133c-.234 0-.44-.113-.621-.34a1.252 1.252 0 01-.271-.81 1.29 1.29 0 01.243-.794.77.77 0 01.648-.327h7.81c.252-.006.497.082.688.247.19.166.284.404.284.722 0 .382-.144.773-.432 1.172l-5.81 8.387h5.729a.813.813 0 01.648.326c.355.479.36 1.131.014 1.615a.805.805 0 01-.662.326H68.75c-.324 0-.572-.1-.743-.3a1.027 1.027 0 01-.253-.69zM78.805 35.916v-2.483c0-1.42.55-2.662 1.648-3.724a5.478 5.478 0 013.945-1.592c1.495 0 2.802.526 3.919 1.578s1.675 2.299 1.675 3.738v2.483c0 1.403-.563 2.65-1.69 3.738-1.126 1.089-2.427 1.633-3.904 1.633-1.495 0-2.801-.54-3.918-1.623-1.116-1.082-1.675-2.331-1.675-3.748zm2.837-.008c0 .733.271 1.39.813 1.97s1.19.872 1.946.872c.739 0 1.383-.29 1.932-.872.55-.58.825-1.237.825-1.97v-2.466c0-.715-.275-1.358-.825-1.93-.55-.573-1.194-.86-1.935-.86a2.584 2.584 0 00-1.946.857c-.541.572-.812 1.215-.812 1.93zM91.396 35.916v-2.56c0-1.42.55-2.648 1.649-3.683 1.099-1.035 2.423-1.552 3.973-1.551 1.477 0 2.74.468 3.792 1.403 1.05.936 1.578 2.117 1.58 3.544 0 .55-.063.995-.189 1.334a1.247 1.247 0 01-.594.716 2.604 2.604 0 01-.756.261c-.305.041-.612.06-.92.055h-5.7v.625c0 .907.323 1.628.972 2.165s1.495.804 2.54.802a4.447 4.447 0 002.094-.516c.657-.345 1.058-.517 1.202-.517.306 0 .567.144.784.434.217.289.325.569.324.84 0 .444-.432.892-1.296 1.346-.865.453-1.928.68-3.19.68-1.837 0-3.342-.494-4.514-1.484-1.173-.99-1.756-2.287-1.751-3.894zm2.838-2.294h4.485c.396 0 .662-.052.797-.159.135-.106.203-.319.203-.637a2.4 2.4 0 00-.784-1.804c-.522-.495-1.17-.743-1.945-.743a2.87 2.87 0 00-1.946.703 2.27 2.27 0 00-.813 1.793zM104.176 40.127V21.586a.77.77 0 01.378-.661c.252-.17.585-.256 1-.257.364-.012.724.076 1.04.257.28.17.42.391.42.66v12.01l5.647-5.181a.807.807 0 01.594-.243c.306 0 .612.144.92.432.306.287.46.593.458.918a.806.806 0 01-.24.59l-3.485 3.102 4.244 6.1a.866.866 0 01.162.486c0 .324-.18.643-.542.958-.361.315-.712.473-1.054.473a.903.903 0 01-.756-.405l-3.973-5.857-1.973 1.781v3.374c0 .234-.145.45-.433.648a1.764 1.764 0 01-1.026.296c-.353.014-.7-.09-.986-.296-.265-.194-.395-.41-.395-.644zM116.695 23.583a1.352 1.352 0 01.487-1.052 1.778 1.778 0 012.323 0 1.367 1.367 0 010 2.09 1.737 1.737 0 01-2.323 0 1.366 1.366 0 01-.487-1.038zm.243 16.544v-10.93c0-.27.131-.49.392-.662.261-.171.599-.256 1.014-.256.36-.014.716.075 1.027.256.27.171.405.391.405.662v10.93c0 .233-.14.45-.419.647a1.706 1.706 0 01-1.013.297 1.646 1.646 0 01-1-.297c-.27-.197-.406-.414-.406-.647z"/></g><path d="M32.447 13.324L18.657.758a2.91 2.91 0 00-3.92 0L.949 13.324a2.904 2.904 0 00-.944 2.293L1.26 40.26a.854.854 0 00.855.812h5.598a.855.855 0 00.855-.854V29.675c0-4.45 3.531-8.173 7.986-8.248a8.122 8.122 0 012.973.508c2.269-1.713 4.293-3.967 4.67-6.705 0 0 2.104 3.066-2.032 8.314a8.087 8.087 0 012.657 5.997v10.676a.853.853 0 00.856.854h5.598a.856.856 0 00.854-.812l1.26-24.642a2.904 2.904 0 00-.944-2.293z" fill="#003459"/></g></svg>