<svg xmlns="http://www.w3.org/2000/svg" width="337.872" height="77.502" viewBox="0 0 337.872 77.502"><g transform="translate(-666.998 -26.178)"><g transform="translate(666.998 38.702)"><path d="M695.755,96.155h-7.6L667,31.775h10.129l14.831,46.839,14.828-46.839h10.3Z" transform="translate(-666.998 -31.775)" fill="#967098"/><path d="M695.85,65.95c0,7.865,4.16,12.841,11.664,12.841,5.153,0,7.867-1.45,11.123-4.7l5.876,5.516c-4.7,4.7-9.131,7.142-17.18,7.142-11.483,0-20.615-6.059-20.615-23.508,0-14.831,7.686-23.421,19.44-23.421,12.3,0,19.442,9.042,19.442,22.062v4.07Zm19.35-12.66a9.45,9.45,0,0,0-9.042-5.786,9.576,9.576,0,0,0-9.131,5.786,14.533,14.533,0,0,0-1.177,6.238h20.617A14.465,14.465,0,0,0,715.2,53.289Z" transform="translate(-642.593 -21.822)" fill="#967098"/><path d="M726.187,86.746c-10.308,0-20.435-6.33-20.435-23.508s10.127-23.421,20.435-23.421c6.328,0,10.758,1.81,15.1,6.42l-6.328,6.151c-2.9-3.168-5.155-4.343-8.771-4.343a10.342,10.342,0,0,0-8.5,4.07c-1.989,2.533-2.712,5.786-2.712,11.123s.723,8.677,2.712,11.212a10.346,10.346,0,0,0,8.5,4.068c3.616,0,5.876-1.177,8.771-4.341l6.328,6.059A18.887,18.887,0,0,1,726.187,86.746Z" transform="translate(-619.039 -21.822)" fill="#967098"/><path d="M740.983,93.153c-8.592,0-12.57-6.149-12.57-12.747V55.177h-5.245V48.127h5.245V34.2h9.223V48.127H746.5v7.051h-8.863V79.954c0,3.345,1.629,5.334,5.063,5.334h3.8v7.865Z" transform="translate(-597.486 -28.774)" fill="#967098"/><path d="M761.769,51.119c-2.076-2.079-3.707-3.074-6.869-3.074-4.974,0-9.136,3.978-9.136,10.309V86.2h-9.219V40.361h9.04v4.972c2.352-3.256,7.055-5.516,12.208-5.516a14.187,14.187,0,0,1,10.939,4.341Z" transform="translate(-580.931 -21.822)" fill="#967098"/><path d="M778.852,86.2V82.045c-3.35,3.345-6.514,4.7-12.21,4.7s-9.494-1.356-12.3-4.157a14.073,14.073,0,0,1-3.616-9.859c0-7.686,5.334-13.2,15.822-13.2h12.118V56.272c0-5.786-2.891-8.588-10.033-8.588-5.068,0-7.507,1.175-10.042,4.43l-6.057-5.7c4.339-5.066,8.863-6.6,16.459-6.6,12.568,0,18.893,5.334,18.893,15.732V86.2Zm-.183-20.252h-10.76c-5.426,0-8.23,2.441-8.23,6.6s2.625,6.509,8.413,6.509c3.526,0,6.144-.269,8.588-2.622,1.356-1.356,1.989-3.526,1.989-6.782Z" transform="translate(-563.379 -21.822)" fill="#967098"/></g><path d="M806.589,101.756a3.314,3.314,0,0,1-4.406,1.6h0a3.314,3.314,0,0,1-1.6-4.4L833.622,28.1a3.311,3.311,0,0,1,4.4-1.6h0a3.311,3.311,0,0,1,1.607,4.4Z" transform="translate(164.929 0.008)" fill="#4e1b54"/><path d="M801.769,101.755a3.315,3.315,0,0,1-4.4,1.6h0a3.32,3.32,0,0,1-1.6-4.4L828.8,28.1a3.314,3.314,0,0,1,4.4-1.6h0a3.315,3.315,0,0,1,1.6,4.4Z" transform="translate(158.966 0.006)" fill="#967098"/><path d="M796.953,101.754a3.314,3.314,0,0,1-4.4,1.6h0a3.314,3.314,0,0,1-1.607-4.4l33.044-70.862a3.312,3.312,0,0,1,4.406-1.6h0a3.312,3.312,0,0,1,1.6,4.4Z" transform="translate(153.002 0.006)" fill="#967098"/><path d="M792.133,101.756a3.319,3.319,0,0,1-4.406,1.6h0a3.316,3.316,0,0,1-1.6-4.4l33.042-70.862a3.316,3.316,0,0,1,4.406-1.6h0a3.313,3.313,0,0,1,1.6,4.4Z" transform="translate(147.04 0.004)" fill="#967098"/><path d="M787.314,101.754a3.314,3.314,0,0,1-4.4,1.6h0a3.316,3.316,0,0,1-1.6-4.4l33.039-70.86a3.315,3.315,0,0,1,4.406-1.6h0a3.311,3.311,0,0,1,1.6,4.4Z" transform="translate(141.077 0.003)" fill="#967098"/><path d="M782.5,101.751a3.314,3.314,0,0,1-4.4,1.607h0a3.316,3.316,0,0,1-1.607-4.406l33.042-70.86a3.315,3.315,0,0,1,4.406-1.6h0a3.316,3.316,0,0,1,1.6,4.4Z" transform="translate(135.113 0.001)" fill="#967098"/><path d="M777.677,101.75a3.316,3.316,0,0,1-4.406,1.6h0a3.313,3.313,0,0,1-1.6-4.4l33.044-70.862a3.31,3.31,0,0,1,4.4-1.6h0a3.313,3.313,0,0,1,1.6,4.4Z" transform="translate(129.15 0)" fill="#967098"/><path d="M792.152,32.276a3.311,3.311,0,0,1-4.4,1.6h0a3.311,3.311,0,0,1-1.607-4.4l.658-1.383a3.31,3.31,0,0,1,4.4-1.6h0a3.313,3.313,0,0,1,1.6,4.4Z" transform="translate(147.062 0)" fill="#4e1b54"/><path d="M794.552,43.966a3.315,3.315,0,0,1-4.4,1.6h0a3.317,3.317,0,0,1-1.607-4.406l6.064-13.072a3.315,3.315,0,0,1,4.406-1.6h0a3.316,3.316,0,0,1,1.6,4.4Z" transform="translate(150.034 0.001)" fill="#4e1b54"/><path d="M796.992,55.269a3.317,3.317,0,0,1-4.406,1.6h0a3.309,3.309,0,0,1-1.6-4.4l11.387-24.374a3.315,3.315,0,0,1,4.406-1.6h0a3.311,3.311,0,0,1,1.6,4.4Z" transform="translate(153.051 0.003)" fill="#4e1b54"/><path d="M799.477,66.491a3.308,3.308,0,0,1-4.4,1.6h0a3.315,3.315,0,0,1-1.6-4.4l16.609-35.6a3.316,3.316,0,0,1,4.406-1.6h0a3.313,3.313,0,0,1,1.6,4.4Z" transform="translate(156.129 0.004)" fill="#4e1b54"/><path d="M801.767,78.617a3.31,3.31,0,0,1-4.4,1.6h0a3.316,3.316,0,0,1-1.6-4.4l22.261-47.721a3.312,3.312,0,0,1,4.406-1.6h0a3.313,3.313,0,0,1,1.6,4.4Z" transform="translate(158.965 0.006)" fill="#4e1b54"/><path d="M804.246,89.88a3.316,3.316,0,0,1-4.406,1.6h0a3.31,3.31,0,0,1-1.6-4.4L825.744,28.1a3.314,3.314,0,0,1,4.4-1.6h0a3.315,3.315,0,0,1,1.6,4.4Z" transform="translate(162.027 0.006)" fill="#4e1b54"/><g transform="translate(890.906 46.684)"><path d="M767.067,39.383a4.174,4.174,0,1,1,4.173,4.041A3.993,3.993,0,0,1,767.067,39.383ZM771.24,36.3a3.086,3.086,0,1,0,2.929,3.081A2.923,2.923,0,0,0,771.24,36.3Zm-.687,5.294H769.6V37.161h1.667c1.154,0,1.819.327,1.819,1.34a1.065,1.065,0,0,1-1.1,1.177L773,41.6h-1.056L771,39.777h-.448Zm0-2.6h.839c.535,0,.687-.141.687-.588,0-.338-.2-.456-.85-.456h-.676Z" transform="translate(-767.067 -35.342)" fill="#967098"/></g></g></svg>